<svg width="100" height="25" viewBox="0 0 100 25" fill="none" xmlns="http://www.w3.org/2000/svg">
<g clip-path="url(#clip0)">
<path fill-rule="evenodd" clip-rule="evenodd" d="M99.8864 8.60529C99.8864 10.1854 98.6055 11.4664 97.0254 11.4664C95.4452 11.4664 94.1643 10.1854 94.1643 8.60529C94.1643 7.0252 95.4452 5.74414 97.0254 5.74414C98.6055 5.74414 99.8864 7.0252 99.8864 8.60529Z" fill="#7887E6"/>
<path fill-rule="evenodd" clip-rule="evenodd" d="M99.8864 17.5595C99.8864 19.1396 98.6055 20.4207 97.0254 20.4207C95.4452 20.4207 94.1643 19.1396 94.1643 17.5595C94.1643 15.9794 95.4452 14.6984 97.0254 14.6984C98.6055 14.6984 99.8864 15.9794 99.8864 17.5595Z" fill="#FF5073"/>
<path fill-rule="evenodd" clip-rule="evenodd" d="M6.78748 9.86594H4.50721V4.42568H6.78748C8.41004 4.42568 9.31622 5.5513 9.31622 7.17366C9.31622 8.90583 8.29923 9.86594 6.78748 9.86594ZM7.28323 1.12705H0V20.0909H4.50721V13.1646H7.28323C10.9376 13.1646 13.6869 10.8841 13.6869 7.00814C13.6869 3.65578 11.6247 1.12705 7.28323 1.12705ZM37.3875 6.07411L34.3636 14.4496L30.8918 6.07411H26.3903L32.3188 19.4312L30.4695 24.0234H34.654L41.7565 6.07411H37.3875ZM69.8691 5.49679V6.07411H67.5327V9.06977H69.8691V20.0909H74.2388V9.06977H77.2621V6.07411H74.2388V5.33206C74.2388 4.09525 74.7336 3.21573 76.0802 3.21573C76.4926 3.21573 77.0148 3.29829 77.3719 3.40811V0.274982C76.7672 0.11006 76.0802 0.000244141 75.2832 0.000244141C71.7379 0.000244141 69.8691 2.17129 69.8691 5.49679ZM61.876 17.0127C61.4638 17.3151 60.8317 17.5626 60.1446 17.5626C59.0452 17.5626 58.3032 16.9303 58.3032 15.9133C58.3032 14.7591 59.2127 13.6299 61.876 14.0719V17.0127ZM61.0239 5.74447C58.3032 5.74447 56.1594 6.59653 54.8402 7.42094L56.0496 9.92203C56.8465 9.56473 58.523 8.9325 59.9522 8.9325C60.969 8.9325 61.876 9.2898 61.876 10.3617V11.2961C55.8147 10.8649 54.0725 13.5315 54.0725 15.9941C54.0725 18.4006 56.1098 20.4207 58.7914 20.4207C59.8495 20.4207 60.9976 20.0208 61.876 19.4695V20.0909H66.2734V10.3342C66.2734 7.17366 64.2671 5.74447 61.0239 5.74447ZM21.8872 17.0127C21.4752 17.3151 20.843 17.5626 20.1558 17.5626C19.0565 17.5626 18.3144 16.9303 18.3144 15.9133C18.3144 14.7591 19.224 13.6299 21.8872 14.0719V17.0127ZM20.8712 5.74447C18.1503 5.74447 16.0067 6.59653 14.6873 7.42094L15.8967 9.92203C16.6937 9.56473 18.3703 8.9325 19.7993 8.9325C20.8163 8.9325 21.7233 9.2898 21.7233 10.3617V11.2961C15.6619 10.8649 13.9198 13.5315 13.9198 15.9941C13.9198 18.4006 15.9569 20.4207 18.6386 20.4207C19.6968 20.4207 20.8448 20.0208 21.7233 19.4695V20.0909H26.1207V10.3342C26.1207 7.17366 24.1144 5.74447 20.8712 5.74447ZM46.2807 10.0318C46.2807 9.37236 46.9402 8.95995 48.0395 8.95995C49.1938 8.95995 50.4029 9.37236 51.2827 9.75711L52.5193 6.87127C51.365 6.29414 49.606 5.74447 47.8197 5.74447C44.5491 5.74447 41.9107 7.22857 41.9107 10.1968C41.9107 14.8691 48.5066 14.017 48.5066 16.0783C48.5066 16.8478 47.7371 17.2325 46.4454 17.2325C45.1262 17.2325 43.8619 16.7929 42.8726 16.2981L41.4709 19.129C43.1199 20.0083 45.0439 20.4207 46.8304 20.4207C50.0184 20.4207 52.7666 18.7717 52.7666 15.7484C52.7666 11.1312 46.2807 11.9007 46.2807 10.0318ZM84.5313 8.82268C85.7407 8.82268 86.7028 9.78456 86.8675 11.6534H82.1954C82.3601 9.78456 83.3222 8.82268 84.5313 8.82268ZM91.3083 13.9621V12.8671C91.3083 8.75691 88.4342 5.74447 84.5313 5.74447C80.6287 5.74447 77.6056 8.85013 77.6056 13.1652C77.6056 17.5898 80.464 20.4207 85.0261 20.4207C86.2981 20.4207 88.8138 20.191 90.7535 18.8482L89.5276 16.1235C88.2129 16.8693 86.8801 17.2051 85.6858 17.2051C85.5819 17.2051 85.48 17.2011 85.379 17.1954C85.3563 17.194 85.3334 17.1926 85.3109 17.191C85.2151 17.1841 85.1207 17.1748 85.0279 17.1624C85.0067 17.1596 84.9864 17.1559 84.9655 17.1529C84.8902 17.1417 84.8161 17.1284 84.7433 17.1134C84.7174 17.1081 84.6913 17.1035 84.666 17.0978C84.5908 17.0808 84.5175 17.0607 84.4448 17.0394C84.4053 17.0277 84.3662 17.0158 84.3281 17.0032C84.2757 16.986 84.2246 16.9671 84.1738 16.9475C84.1161 16.925 84.0597 16.9015 84.0048 16.8764C83.9884 16.8689 83.9724 16.861 83.9562 16.8533C83.8671 16.8106 83.7812 16.765 83.6996 16.7158C83.697 16.7144 83.6949 16.7129 83.6923 16.7115C83.5102 16.6007 83.3466 16.4739 83.2007 16.3334C83.1985 16.3313 83.1964 16.3293 83.1942 16.3271C83.1341 16.2691 83.0776 16.2082 83.0235 16.1456C83.0026 16.1213 82.9817 16.097 82.9615 16.0717C82.9301 16.033 82.9001 15.9937 82.8708 15.9538C82.8217 15.8855 82.7735 15.8162 82.729 15.7421C82.7279 15.7399 82.7265 15.7379 82.7251 15.7358C82.448 15.2696 82.2639 14.6828 82.1954 13.9623V13.9621H91.3083Z" fill="white"/>
</g>
<defs>
<clipPath id="clip0">
<rect width="100" height="24.0964" fill="white"/>
</clipPath>
</defs>
</svg>
