<svg width="40" height="40" viewBox="0 0 40 40" fill="none" xmlns="http://www.w3.org/2000/svg">
<circle cx="20" cy="20" r="19.25" stroke="url(#paint0_linear)" stroke-width="1.5"/>
<path d="M9.924 25V23.068H11.828V18.476H10.148V16.992C10.652 16.8893 11.0813 16.7727 11.436 16.642C11.7907 16.5113 12.136 16.3387 12.472 16.124H14.236V23.068H15.832V25H9.924ZM20.3125 25.168C19.8645 25.168 19.4445 25.112 19.0525 25C18.6699 24.8787 18.3339 24.7107 18.0445 24.496C17.7645 24.2813 17.5452 24.0247 17.3865 23.726C17.2279 23.4273 17.1485 23.096 17.1485 22.732C17.1485 22.2093 17.2839 21.7847 17.5545 21.458C17.8345 21.1313 18.1845 20.856 18.6045 20.632V20.576C18.2499 20.3053 17.9652 20.0067 17.7505 19.68C17.5359 19.344 17.4285 18.9427 17.4285 18.476C17.4285 18.084 17.4985 17.734 17.6385 17.426C17.7879 17.1087 17.9932 16.8427 18.2545 16.628C18.5252 16.4133 18.8379 16.25 19.1925 16.138C19.5565 16.0167 19.9579 15.956 20.3965 15.956C20.8072 15.956 21.1805 16.0167 21.5165 16.138C21.8619 16.25 22.1559 16.4133 22.3985 16.628C22.6412 16.8333 22.8279 17.09 22.9585 17.398C23.0985 17.706 23.1685 18.0467 23.1685 18.42C23.1685 18.8307 23.0565 19.1947 22.8325 19.512C22.6179 19.82 22.3519 20.0767 22.0345 20.282V20.338C22.4732 20.5713 22.8372 20.8747 23.1265 21.248C23.4159 21.612 23.5605 22.088 23.5605 22.676C23.5605 23.0307 23.4812 23.362 23.3225 23.67C23.1732 23.9687 22.9539 24.23 22.6645 24.454C22.3845 24.678 22.0439 24.8553 21.6425 24.986C21.2412 25.1073 20.7979 25.168 20.3125 25.168ZM20.8445 19.708C21.1059 19.3347 21.2365 18.9613 21.2365 18.588C21.2365 18.28 21.1572 18.042 20.9985 17.874C20.8399 17.6967 20.6205 17.608 20.3405 17.608C20.1259 17.608 19.9345 17.678 19.7665 17.818C19.6079 17.9487 19.5285 18.168 19.5285 18.476C19.5285 18.7747 19.6405 19.0127 19.8645 19.19C20.0979 19.3673 20.4245 19.54 20.8445 19.708ZM20.3685 23.516C20.6392 23.516 20.8679 23.446 21.0545 23.306C21.2412 23.166 21.3345 22.928 21.3345 22.592C21.3345 22.4333 21.2972 22.2933 21.2225 22.172C21.1479 22.0507 21.0359 21.9433 20.8865 21.85C20.7465 21.7473 20.5739 21.6493 20.3685 21.556C20.1632 21.4627 19.9299 21.36 19.6685 21.248C19.5379 21.4067 19.4259 21.5933 19.3325 21.808C19.2485 22.0133 19.2065 22.228 19.2065 22.452C19.2065 22.8067 19.3232 23.0727 19.5565 23.25C19.7899 23.4273 20.0605 23.516 20.3685 23.516ZM27.0331 23.74V21.22H24.5971V19.54H27.0331V17.02H28.7691V19.54H31.2051V21.22H28.7691V23.74H27.0331Z" fill="white"/>
<defs>
<linearGradient id="paint0_linear" x1="20" y1="0" x2="20" y2="40" gradientUnits="userSpaceOnUse">
<stop stop-color="#DC5537"/>
<stop offset="1" stop-color="#CB3818"/>
</linearGradient>
</defs>
</svg>
