<svg width="94" height="19" viewBox="0 0 94 19" fill="none" xmlns="http://www.w3.org/2000/svg">
<path d="M6.208 9.64806L5.656 11.5681H9.664L9.112 9.64806C8.856 8.81606 8.608 7.96006 8.368 7.08006C8.144 6.20006 7.92 5.32806 7.696 4.46406H7.6C7.376 5.34406 7.152 6.22406 6.928 7.10406C6.704 7.96806 6.464 8.81606 6.208 9.64806ZM0.952 18.0001L6.064 2.30406H9.328L14.44 18.0001H11.512L10.288 13.7521H5.008L3.784 18.0001H0.952ZM18.8228 18.2881C17.8308 18.2881 17.1348 17.9921 16.7348 17.4001C16.3348 16.8081 16.1348 16.0001 16.1348 14.9761V1.05606H18.8948V15.1201C18.8948 15.4561 18.9588 15.6961 19.0868 15.8401C19.2148 15.9681 19.3508 16.0321 19.4948 16.0321C19.5588 16.0321 19.6148 16.0321 19.6628 16.0321C19.7268 16.0321 19.8148 16.0161 19.9268 15.9841L20.2868 18.0481C19.9188 18.2081 19.4308 18.2881 18.8228 18.2881ZM23.1304 18.0001V8.40006H21.5464V6.33606L23.1304 6.21606V4.99206C23.1304 4.38406 23.2024 3.82406 23.3464 3.31206C23.4904 2.78406 23.7224 2.33606 24.0424 1.96806C24.3624 1.58406 24.7624 1.28806 25.2424 1.08006C25.7384 0.87206 26.3384 0.76806 27.0424 0.76806C27.4584 0.76806 27.8504 0.80806 28.2184 0.88806C28.6024 0.96806 28.9304 1.06406 29.2024 1.17606L28.6744 3.24006C28.2424 3.04806 27.8104 2.95206 27.3784 2.95206C26.3864 2.95206 25.8904 3.61606 25.8904 4.94406V6.21606H28.1944V8.40006H25.8904V18.0001H23.1304ZM32.6549 18.2881C31.6149 18.2881 30.7749 17.9761 30.1349 17.3521C29.4949 16.7121 29.1749 15.8721 29.1749 14.8321C29.1749 14.2081 29.3029 13.6561 29.5589 13.1761C29.8309 12.6801 30.2469 12.2561 30.8069 11.9041C31.3829 11.5521 32.1029 11.2561 32.9669 11.0161C33.8469 10.7761 34.8949 10.5921 36.1109 10.4641C36.0949 10.1601 36.0469 9.87206 35.9669 9.60006C35.9029 9.31206 35.7829 9.06406 35.6069 8.85606C35.4469 8.63206 35.2309 8.46406 34.9589 8.35206C34.6869 8.22406 34.3509 8.16006 33.9509 8.16006C33.3749 8.16006 32.8069 8.27206 32.2469 8.49606C31.7029 8.72006 31.1669 8.99206 30.6389 9.31206L29.6309 7.46406C30.2869 7.04806 31.0229 6.68806 31.8389 6.38406C32.6549 6.08006 33.5349 5.92806 34.4789 5.92806C35.9509 5.92806 37.0469 6.36806 37.7669 7.24806C38.5029 8.11206 38.8709 9.36806 38.8709 11.0161V18.0001H36.5909L36.3989 16.7041H36.3029C35.7749 17.1521 35.2069 17.5281 34.5989 17.8321C34.0069 18.1361 33.3589 18.2881 32.6549 18.2881ZM33.5429 16.1281C34.0229 16.1281 34.4549 16.0161 34.8389 15.7921C35.2389 15.5681 35.6629 15.2481 36.1109 14.8321V12.1921C35.3109 12.2881 34.6389 12.4161 34.0949 12.5761C33.5509 12.7361 33.1109 12.9201 32.7749 13.1281C32.4389 13.3201 32.1989 13.5441 32.0549 13.8001C31.9109 14.0561 31.8389 14.3281 31.8389 14.6161C31.8389 15.1441 31.9989 15.5281 32.3189 15.7681C32.6389 16.0081 33.0469 16.1281 33.5429 16.1281ZM42.1739 18.0001V1.05606H44.8859V11.6401H44.9579L49.3259 6.21606H52.3499L48.3179 11.0161L52.7579 18.0001H49.7579L46.7339 12.8881L44.8859 15.0001V18.0001H42.1739ZM57.3346 18.2881C56.2946 18.2881 55.4546 17.9761 54.8146 17.3521C54.1746 16.7121 53.8546 15.8721 53.8546 14.8321C53.8546 14.2081 53.9826 13.6561 54.2386 13.1761C54.5106 12.6801 54.9266 12.2561 55.4866 11.9041C56.0626 11.5521 56.7826 11.2561 57.6466 11.0161C58.5266 10.7761 59.5746 10.5921 60.7906 10.4641C60.7746 10.1601 60.7266 9.87206 60.6466 9.60006C60.5826 9.31206 60.4626 9.06406 60.2866 8.85606C60.1266 8.63206 59.9106 8.46406 59.6386 8.35206C59.3666 8.22406 59.0306 8.16006 58.6306 8.16006C58.0546 8.16006 57.4866 8.27206 56.9266 8.49606C56.3826 8.72006 55.8466 8.99206 55.3186 9.31206L54.3106 7.46406C54.9666 7.04806 55.7026 6.68806 56.5186 6.38406C57.3346 6.08006 58.2146 5.92806 59.1586 5.92806C60.6306 5.92806 61.7266 6.36806 62.4466 7.24806C63.1826 8.11206 63.5506 9.36806 63.5506 11.0161V18.0001H61.2706L61.0786 16.7041H60.9826C60.4546 17.1521 59.8866 17.5281 59.2786 17.8321C58.6866 18.1361 58.0386 18.2881 57.3346 18.2881ZM58.2226 16.1281C58.7026 16.1281 59.1346 16.0161 59.5186 15.7921C59.9186 15.5681 60.3426 15.2481 60.7906 14.8321V12.1921C59.9906 12.2881 59.3186 12.4161 58.7746 12.5761C58.2306 12.7361 57.7906 12.9201 57.4546 13.1281C57.1186 13.3201 56.8786 13.5441 56.7346 13.8001C56.5906 14.0561 56.5186 14.3281 56.5186 14.6161C56.5186 15.1441 56.6786 15.5281 56.9986 15.7681C57.3186 16.0081 57.7266 16.1281 58.2226 16.1281ZM70.1416 18.2881C69.3256 18.2881 68.5176 18.1361 67.7176 17.8321C66.9336 17.5121 66.2536 17.1201 65.6776 16.6561L66.9736 14.8801C67.5016 15.2961 68.0216 15.6241 68.5336 15.8641C69.0616 16.0881 69.6296 16.2001 70.2376 16.2001C70.8776 16.2001 71.3496 16.0721 71.6536 15.8161C71.9576 15.5441 72.1096 15.2001 72.1096 14.7841C72.1096 14.5441 72.0376 14.3361 71.8936 14.1601C71.7496 13.9681 71.5576 13.8001 71.3176 13.6561C71.0776 13.5121 70.8056 13.3841 70.5016 13.2721C70.1976 13.1441 69.8936 13.0161 69.5896 12.8881C69.2056 12.7441 68.8136 12.5761 68.4136 12.3841C68.0136 12.1921 67.6536 11.9601 67.3336 11.6881C67.0296 11.4161 66.7736 11.1041 66.5656 10.7521C66.3736 10.3841 66.2776 9.95206 66.2776 9.45606C66.2776 8.41606 66.6616 7.56806 67.4296 6.91206C68.1976 6.25606 69.2456 5.92806 70.5736 5.92806C71.3896 5.92806 72.1256 6.07206 72.7816 6.36006C73.4376 6.64806 74.0056 6.97606 74.4856 7.34406L73.2136 9.02406C72.7976 8.72006 72.3736 8.48006 71.9416 8.30406C71.5256 8.11206 71.0856 8.01606 70.6216 8.01606C70.0296 8.01606 69.5896 8.14406 69.3016 8.40006C69.0296 8.64006 68.8936 8.94406 68.8936 9.31206C68.8936 9.55206 68.9576 9.76006 69.0856 9.93606C69.2296 10.0961 69.4136 10.2401 69.6376 10.3681C69.8616 10.4961 70.1176 10.6161 70.4056 10.7281C70.7096 10.8401 71.0216 10.9521 71.3416 11.0641C71.7416 11.2081 72.1416 11.3761 72.5416 11.5681C72.9416 11.7441 73.3016 11.9681 73.6216 12.2401C73.9576 12.5121 74.2216 12.8481 74.4136 13.2481C74.6216 13.6321 74.7256 14.0961 74.7256 14.6401C74.7256 15.1521 74.6216 15.6321 74.4136 16.0801C74.2216 16.5121 73.9336 16.8961 73.5496 17.2321C73.1656 17.5521 72.6856 17.8081 72.1096 18.0001C71.5336 18.1921 70.8776 18.2881 70.1416 18.2881ZM80.8728 18.2881C80.1848 18.2881 79.6008 18.1841 79.1208 17.9761C78.6568 17.7681 78.2728 17.4801 77.9688 17.1121C77.6808 16.7281 77.4648 16.2801 77.3208 15.7681C77.1928 15.2401 77.1288 14.6561 77.1288 14.0161V8.40006H75.4488V6.33606L77.2728 6.21606L77.6088 3.00006H79.9128V6.21606H82.9128V8.40006H79.9128V14.0161C79.9128 15.3921 80.4648 16.0801 81.5688 16.0801C81.7768 16.0801 81.9848 16.0561 82.1928 16.0081C82.4168 15.9601 82.6168 15.8961 82.7928 15.8161L83.2728 17.8561C82.9528 17.9681 82.5848 18.0641 82.1688 18.1441C81.7688 18.2401 81.3368 18.2881 80.8728 18.2881ZM87.733 18.2881C86.693 18.2881 85.853 17.9761 85.213 17.3521C84.573 16.7121 84.253 15.8721 84.253 14.8321C84.253 14.2081 84.381 13.6561 84.637 13.1761C84.909 12.6801 85.325 12.2561 85.885 11.9041C86.461 11.5521 87.181 11.2561 88.045 11.0161C88.925 10.7761 89.973 10.5921 91.189 10.4641C91.173 10.1601 91.125 9.87206 91.045 9.60006C90.981 9.31206 90.861 9.06406 90.685 8.85606C90.525 8.63206 90.309 8.46406 90.037 8.35206C89.765 8.22406 89.429 8.16006 89.029 8.16006C88.453 8.16006 87.885 8.27206 87.325 8.49606C86.781 8.72006 86.245 8.99206 85.717 9.31206L84.709 7.46406C85.365 7.04806 86.101 6.68806 86.917 6.38406C87.733 6.08006 88.613 5.92806 89.557 5.92806C91.029 5.92806 92.125 6.36806 92.845 7.24806C93.581 8.11206 93.949 9.36806 93.949 11.0161V18.0001H91.669L91.477 16.7041H91.381C90.853 17.1521 90.285 17.5281 89.677 17.8321C89.085 18.1361 88.437 18.2881 87.733 18.2881ZM88.621 16.1281C89.101 16.1281 89.533 16.0161 89.917 15.7921C90.317 15.5681 90.741 15.2481 91.189 14.8321V12.1921C90.389 12.2881 89.717 12.4161 89.173 12.5761C88.629 12.7361 88.189 12.9201 87.853 13.1281C87.517 13.3201 87.277 13.5441 87.133 13.8001C86.989 14.0561 86.917 14.3281 86.917 14.6161C86.917 15.1441 87.077 15.5281 87.397 15.7681C87.717 16.0081 88.125 16.1281 88.621 16.1281Z" fill="url(#paint0_linear)"/>
<defs>
<linearGradient id="paint0_linear" x1="48.5" y1="-5.99994" x2="48.5" y2="24.0001" gradientUnits="userSpaceOnUse">
<stop stop-color="#6772E5"/>
<stop offset="1" stop-color="#4F56AD"/>
</linearGradient>
</defs>
</svg>
