<svg width="120" height="101" viewBox="0 0 120 101" fill="none" xmlns="http://www.w3.org/2000/svg">
<g clip-path="url(#clip0)">
<path d="M83.5184 12.3796H58.764V40.2916H83.5184V12.3796Z" fill="url(#paint0_linear)"/>
<path d="M71.1435 24.7591C77.9806 24.7591 83.5231 19.2166 83.5231 12.3796C83.5231 5.54252 77.9806 0 71.1435 0C64.3065 0 58.764 5.54252 58.764 12.3796C58.764 19.2166 64.3065 24.7591 71.1435 24.7591Z" fill="#57D9A3"/>
<path d="M68.8604 17.2055L64.8663 12.9939C64.7782 12.9054 64.7288 12.7856 64.7288 12.6607C64.7288 12.5358 64.7782 12.416 64.8663 12.3274L65.9298 11.3443C66.0184 11.2562 66.1382 11.2068 66.263 11.2068C66.3879 11.2068 66.5077 11.2562 66.5963 11.3443L69.2433 14.1378L76.1728 7.52027C76.2614 7.43223 76.3812 7.38281 76.5061 7.38281C76.631 7.38281 76.7508 7.43223 76.8393 7.52027L77.8461 8.57907C77.9342 8.66764 77.9836 8.78744 77.9836 8.91232C77.9836 9.03719 77.9342 9.15699 77.8461 9.24556L69.5269 17.1677C69.4435 17.261 69.3264 17.3173 69.2015 17.3244C69.0766 17.3315 68.9539 17.2887 68.8604 17.2055Z" fill="white"/>
<path d="M116.592 36.4534H113.865C114.768 36.4534 115.635 36.8124 116.274 37.4516C116.914 38.0907 117.273 38.9575 117.273 39.8614V97.056H0C0 97.9988 0.374499 98.9029 1.04111 99.5695C1.70772 100.236 2.61184 100.611 3.55458 100.611H116.724C117.593 100.611 118.426 100.265 119.041 99.6512C119.655 99.0369 120 98.2037 120 97.3349V39.8614C120 38.9575 119.641 38.0907 119.002 37.4516C118.363 36.8124 117.496 36.4534 116.592 36.4534Z" fill="#EBECF0"/>
<path d="M117.273 97.0607V39.8661C117.273 38.9622 116.914 38.0953 116.274 37.4562C115.635 36.8171 114.768 36.458 113.865 36.458H28.9093C28.0104 36.4642 27.1503 36.8254 26.5164 37.4628C25.8825 38.1003 25.5261 38.9624 25.5249 39.8613V97.056L117.273 97.0607Z" fill="#C1C7D0"/>
<path d="M111.813 41.9128H30.9607V91.3413H111.813V41.9128Z" fill="url(#paint1_linear)"/>
<g style="mix-blend-mode:multiply">
<path d="M47.6748 76.9622H38.0699V83.3765H47.6748V76.9622Z" fill="#EBECF0"/>
</g>
<g style="mix-blend-mode:multiply">
<path d="M48.9747 41.9128H39.3698V48.3272H48.9747V41.9128Z" fill="#EBECF0"/>
</g>
<g style="mix-blend-mode:multiply">
<path d="M103.759 41.9128H94.1537V48.3272H103.759V41.9128Z" fill="#EBECF0"/>
</g>
<g style="mix-blend-mode:multiply">
<path d="M42.8723 84.6196H33.2674V91.0339H42.8723V84.6196Z" fill="#EBECF0"/>
</g>
<g style="mix-blend-mode:multiply">
<path d="M100.757 62.446H91.1522V68.8603H100.757V62.446Z" fill="#EBECF0"/>
</g>
<g style="mix-blend-mode:multiply">
<path d="M107.129 70.1035H97.5239V76.5178H107.129V70.1035Z" fill="#EBECF0"/>
</g>
<g style="mix-blend-mode:multiply">
<path d="M111.813 84.9221H103.759V91.3364H111.813V84.9221Z" fill="#EBECF0"/>
</g>
<g style="mix-blend-mode:multiply">
<path d="M95.9499 70.1035H86.345V76.5178H95.9499V70.1035Z" fill="#EBECF0"/>
</g>
<path d="M34.3782 48.3792H10.347C9.2036 48.3792 8.27667 49.3061 8.27667 50.4495V94.9904C8.27667 96.1339 9.2036 97.0608 10.347 97.0608H34.3782C35.5216 97.0608 36.4486 96.1339 36.4486 94.9904V50.4495C36.4486 49.3061 35.5216 48.3792 34.3782 48.3792Z" fill="#A5ADBA"/>
<path d="M32.9744 48.3792H8.94315C7.79973 48.3792 6.8728 49.3061 6.8728 50.4495V94.9904C6.8728 96.1339 7.79973 97.0608 8.94315 97.0608H32.9744C34.1178 97.0608 35.0447 96.1339 35.0447 94.9904V50.4495C35.0447 49.3061 34.1178 48.3792 32.9744 48.3792Z" fill="url(#paint2_linear)"/>
<path d="M32.114 51.22H9.8034C9.49274 51.22 9.24091 51.4718 9.24091 51.7825V89.2473C9.24091 89.558 9.49274 89.8098 9.8034 89.8098H32.114C32.4247 89.8098 32.6765 89.558 32.6765 89.2473V51.7825C32.6765 51.4718 32.4247 51.22 32.114 51.22Z" fill="url(#paint3_linear)"/>
<path d="M20.9588 95.8176C20.4913 95.8176 20.0344 95.679 19.6457 95.4193C19.257 95.1596 18.9541 94.7905 18.7752 94.3587C18.5964 93.9268 18.5496 93.4516 18.6408 92.9931C18.7319 92.5347 18.957 92.1136 19.2876 91.783C19.6181 91.4525 20.0392 91.2274 20.4977 91.1362C20.9561 91.045 21.4313 91.0918 21.8632 91.2707C22.2951 91.4496 22.6642 91.7525 22.9239 92.1412C23.1836 92.5298 23.3222 92.9868 23.3222 93.4542C23.3222 93.7646 23.261 94.0719 23.1423 94.3587C23.0235 94.6454 22.8494 94.9059 22.6299 95.1254C22.4105 95.3449 22.1499 95.519 21.8632 95.6377C21.5765 95.7565 21.2691 95.8176 20.9588 95.8176ZM20.9588 92.0362C20.6783 92.0362 20.4041 92.1194 20.1709 92.2752C19.9377 92.431 19.756 92.6525 19.6486 92.9116C19.5413 93.1707 19.5132 93.4558 19.568 93.7309C19.6227 94.006 19.7577 94.2586 19.956 94.4569C20.1544 94.6553 20.407 94.7903 20.6821 94.845C20.9572 94.8997 21.2423 94.8717 21.5014 94.7643C21.7605 94.657 21.982 94.4752 22.1378 94.2421C22.2936 94.0089 22.3768 93.7347 22.3768 93.4542C22.3768 93.0781 22.2274 92.7175 21.9615 92.4515C21.6955 92.1856 21.3348 92.0362 20.9588 92.0362Z" fill="#5E6C84"/>
<g style="mix-blend-mode:multiply">
<path d="M21.3322 77.0189V62.3138C21.3426 62.1634 21.3232 62.0125 21.2751 61.8697C21.227 61.7268 21.1512 61.5949 21.0519 61.4815C20.9527 61.3681 20.832 61.2754 20.6969 61.2087C20.5617 61.1421 20.4147 61.1028 20.2643 61.0932C20.1139 61.0835 19.9631 61.1037 19.8205 61.1525C19.6779 61.2013 19.5464 61.2778 19.4335 61.3776C19.3206 61.4774 19.2285 61.5986 19.1625 61.7341C19.0966 61.8696 19.058 62.0168 19.0491 62.1672C19.0444 62.216 19.0444 62.265 19.0491 62.3138V64.4597H15.4284C15.278 64.4493 15.1271 64.4687 14.9843 64.5168C14.8415 64.5649 14.7095 64.6408 14.5961 64.74C14.4827 64.8392 14.39 64.9599 14.3234 65.0951C14.2567 65.2302 14.2174 65.3772 14.2078 65.5276C14.1981 65.678 14.2183 65.8288 14.2671 65.9714C14.3159 66.114 14.3924 66.2455 14.4923 66.3585C14.5921 66.4714 14.7132 66.5635 14.8487 66.6294C14.9842 66.6954 15.1314 66.7339 15.2818 66.7428C15.3306 66.7475 15.3796 66.7475 15.4284 66.7428H19.0444V68.1608H15.4284C15.278 68.1504 15.1271 68.1698 14.9843 68.2179C14.8415 68.266 14.7095 68.3419 14.5961 68.4411C14.4827 68.5403 14.39 68.661 14.3234 68.7962C14.2567 68.9313 14.2174 69.0783 14.2078 69.2287C14.1981 69.3791 14.2183 69.53 14.2671 69.6725C14.3159 69.8151 14.3924 69.9466 14.4923 70.0596C14.5921 70.1725 14.7132 70.2646 14.8487 70.3305C14.9842 70.3965 15.1314 70.435 15.2818 70.4439H19.0633V77.0142C17.8368 77.2948 16.7565 78.0172 16.0288 79.0437C15.3011 80.0701 14.9768 81.3286 15.118 82.5788C15.2592 83.8291 15.8559 84.9836 16.7942 85.8219C17.7325 86.6602 18.9466 87.1236 20.2048 87.1236C21.4631 87.1236 22.6772 86.6602 23.6155 85.8219C24.5538 84.9836 25.1505 83.8291 25.2917 82.5788C25.4328 81.3286 25.1086 80.0701 24.3809 79.0437C23.6532 78.0172 22.5729 77.2948 21.3464 77.0142L21.3322 77.0189ZM20.1883 84.8465C19.6274 84.8465 19.079 84.6802 18.6126 84.3686C18.1463 84.0569 17.7827 83.614 17.5681 83.0958C17.3534 82.5775 17.2973 82.0073 17.4067 81.4572C17.5161 80.907 17.7862 80.4017 18.1829 80.005C18.5795 79.6084 19.0849 79.3383 19.635 79.2289C20.1852 79.1194 20.7554 79.1756 21.2736 79.3902C21.7919 79.6049 22.2348 79.9684 22.5464 80.4348C22.8581 80.9012 23.0244 81.4495 23.0244 82.0105C23.0244 82.7626 22.7256 83.484 22.1937 84.0159C21.6618 84.5477 20.9405 84.8465 20.1883 84.8465Z" fill="#EBECF0"/>
</g>
<path d="M22.3248 75.2463V60.5365C22.3061 60.2464 22.1777 59.9743 21.9657 59.7755C21.7536 59.5767 21.4739 59.4661 21.1832 59.4661C20.8926 59.4661 20.6128 59.5767 20.4008 59.7755C20.1888 59.9743 20.0604 60.2464 20.0417 60.5365V62.6872H16.4257C16.1356 62.7058 15.8636 62.8342 15.6647 63.0463C15.4659 63.2583 15.3553 63.538 15.3553 63.8287C15.3553 64.1194 15.4659 64.3991 15.6647 64.6111C15.8636 64.8232 16.1356 64.9516 16.4257 64.9702H20.0417V66.3883H16.4257C16.1238 66.3704 15.8272 66.4728 15.6006 66.6731C15.3741 66.8733 15.236 67.1552 15.2166 67.4569C15.1973 67.7587 15.2982 68.0558 15.4973 68.2834C15.6964 68.511 15.9775 68.6504 16.2791 68.6713H20.0606V75.2416C18.8341 75.5222 17.7538 76.2447 17.0261 77.2711C16.2984 78.2975 15.9741 79.556 16.1153 80.8063C16.2565 82.0565 16.8532 83.211 17.7915 84.0493C18.7298 84.8876 19.9439 85.351 21.2021 85.351C22.4604 85.351 23.6745 84.8876 24.6128 84.0493C25.5511 83.211 26.1478 82.0565 26.289 80.8063C26.4301 79.556 26.1059 78.2975 25.3782 77.2711C24.6505 76.2447 23.5702 75.5222 22.3437 75.2416L22.3248 75.2463ZM21.1856 83.0692C20.6247 83.0692 20.0763 82.9029 19.6099 82.5913C19.1436 82.2796 18.78 81.8367 18.5654 81.3185C18.3507 80.8002 18.2946 80.23 18.404 79.6799C18.5134 79.1297 18.7835 78.6244 19.1802 78.2277C19.5768 77.8311 20.0822 77.561 20.6323 77.4515C21.1824 77.3421 21.7527 77.3983 22.2709 77.6129C22.7892 77.8276 23.2321 78.1911 23.5437 78.6575C23.8554 79.1239 24.0217 79.6722 24.0217 80.2332C24.0217 80.9853 23.7229 81.7067 23.191 82.2386C22.6591 82.7704 21.9378 83.0692 21.1856 83.0692Z" fill="url(#paint4_linear)"/>
<g style="mix-blend-mode:multiply">
<path d="M53.8008 51.0733H84.0525C84.5584 51.0714 85.0597 51.1692 85.5278 51.3611C85.9959 51.553 86.4216 51.8352 86.7807 52.1916C87.1397 52.548 87.425 52.9716 87.6203 53.4383C87.8157 53.905 87.9172 54.4055 87.919 54.9114V70.0373C87.919 72.5302 87.428 74.9987 86.474 77.3018C85.52 79.6049 84.1218 81.6976 82.359 83.4603C80.5963 85.223 78.5036 86.6213 76.2005 87.5753C73.8974 88.5292 71.4289 89.0203 68.9361 89.0203C63.9015 89.0203 59.0731 87.0203 55.5131 83.4603C51.9531 79.9003 49.9531 75.0719 49.9531 70.0373V54.9114C49.9531 54.4055 50.0528 53.9046 50.2464 53.4372C50.44 52.9698 50.7237 52.5451 51.0815 52.1874C51.4392 51.8297 51.8639 51.5459 52.3313 51.3523C52.7986 51.1587 53.2996 51.0591 53.8055 51.0591L53.8008 51.0733Z" fill="#DFE1E5"/>
</g>
<path d="M57.6673 48.9604H87.919C88.9408 48.9604 89.9206 49.3663 90.6431 50.0888C91.3655 50.8112 91.7714 51.7911 91.7714 52.8128V67.9387C91.772 70.4315 91.2816 72.9001 90.3282 75.2035C89.3748 77.5068 87.9771 79.5999 86.2148 81.363C84.4525 83.1262 82.3602 84.525 80.0573 85.4795C77.7544 86.4341 75.2861 86.9257 72.7932 86.9263C67.7586 86.9263 62.9302 84.9264 59.3702 81.3664C55.8102 77.8064 53.8102 72.978 53.8102 67.9434V52.8175C53.8102 52.3116 53.9099 51.8107 54.1035 51.3433C54.2971 50.8759 54.5809 50.4512 54.9386 50.0935C55.2963 49.7358 55.721 49.452 56.1884 49.2584C56.6558 49.0648 57.1567 48.9652 57.6626 48.9652L57.6673 48.9604Z" fill="url(#paint5_linear)"/>
<path d="M55.5118 48.9604H85.7635C86.7853 48.9604 87.7651 49.3663 88.4876 50.0888C89.21 50.8112 89.6159 51.7911 89.6159 52.8128V67.9387C89.6159 72.9733 87.6159 77.8016 84.0559 81.3616C80.4959 84.9216 75.6676 86.9216 70.633 86.9216C65.5984 86.9216 60.77 84.9216 57.21 81.3616C53.65 77.8016 51.65 72.9733 51.65 67.9387V52.8128C51.65 51.7911 52.0559 50.8112 52.7784 50.0888C53.5008 49.3663 54.4807 48.9604 55.5024 48.9604H55.5118Z" fill="url(#paint6_linear)"/>
<path d="M70.6424 84.3173C66.3083 84.306 62.1549 82.5793 59.0902 79.5146C56.0255 76.45 54.2988 72.2966 54.2876 67.9624V53.834C54.2888 53.2384 54.5256 52.6676 54.9463 52.246C55.367 51.8245 55.9373 51.5865 56.5328 51.584H84.752C85.3475 51.5865 85.9179 51.8245 86.3385 52.246C86.7592 52.6676 86.996 53.2384 86.9973 53.834V67.9435C86.9923 72.2813 85.2682 76.4403 82.2027 79.5093C79.1372 82.5784 74.9802 84.3073 70.6424 84.3173ZM84.752 52.8933H56.5328C56.2821 52.8933 56.0417 52.9929 55.8644 53.1702C55.6871 53.3475 55.5875 53.588 55.5875 53.8387V67.9672C55.5875 71.9575 57.1726 75.7844 59.9942 78.6059C62.8158 81.4275 66.6427 83.0127 70.633 83.0127C74.6233 83.0127 78.4502 81.4275 81.2717 78.6059C84.0933 75.7844 85.6785 71.9575 85.6785 67.9672V53.834C85.6773 53.5873 85.5797 53.3509 85.4066 53.1751C85.2336 52.9994 84.9986 52.8982 84.752 52.8933Z" fill="url(#paint7_linear)"/>
<path d="M75.6812 63.6515C75.6805 62.8175 75.4728 61.9968 75.0767 61.2629C74.6806 60.529 74.1085 59.9048 73.4118 59.4465C72.7151 58.9881 71.9155 58.7099 71.0848 58.6366C70.254 58.5634 69.4181 58.6976 68.652 59.027C67.8858 59.3564 67.2134 59.8709 66.6951 60.5242C66.1768 61.1775 65.8287 61.9493 65.6821 62.7703C65.5355 63.5912 65.595 64.4358 65.8552 65.2281C66.1154 66.0204 66.5682 66.7358 67.1729 67.31C67.4098 67.5249 67.5824 67.8012 67.6717 68.1083C67.761 68.4154 67.7634 68.7412 67.6787 69.0495L66.7806 72.1598C66.6872 72.487 66.7272 72.8378 66.892 73.1355C67.0568 73.4333 67.3329 73.6535 67.6598 73.748C67.775 73.7814 67.8943 73.7989 68.0143 73.8H73.2658C73.6068 73.8 73.9338 73.6645 74.1749 73.4234C74.4161 73.1823 74.5515 72.8553 74.5515 72.5143C74.5511 72.3942 74.5336 72.2749 74.4995 72.1598L73.6014 69.0637C73.5156 68.7532 73.5174 68.425 73.6066 68.1154C73.6959 67.8059 73.8692 67.5271 74.1072 67.31C74.6057 66.8402 75.0026 66.2731 75.2734 65.6439C75.5441 65.0146 75.6829 64.3365 75.6812 63.6515Z" fill="#7A869A"/>
<path d="M68.8699 73.7763H73.4974C73.8315 73.7154 74.1276 73.5243 74.3208 73.2451C74.514 72.9659 74.5885 72.6215 74.5279 72.2874C74.523 72.244 74.5134 72.2012 74.4995 72.1598L73.6014 69.0637C73.5156 68.7532 73.5173 68.425 73.6066 68.1154C73.6959 67.8059 73.8692 67.5271 74.1072 67.31C74.7547 66.6927 75.226 65.9141 75.4725 65.0542C75.7191 64.1942 75.7321 63.2841 75.5102 62.4175C75.2882 61.5509 74.8394 60.7591 74.2098 60.1236C73.5802 59.4881 72.7926 59.0318 71.9281 58.8018C71.0629 59.0306 70.2743 59.486 69.6436 60.121C69.0129 60.756 68.5629 61.5476 68.34 62.4144C68.117 63.2812 68.1292 64.1917 68.3752 65.0522C68.6212 65.9127 69.0922 66.6921 69.7396 67.31C69.9764 67.5249 70.1491 67.8012 70.2384 68.1083C70.3276 68.4154 70.3301 68.7412 70.2454 69.0495L68.8699 73.7763Z" fill="#253858"/>
<path d="M17.962 58.0501C17.8978 58.0511 17.8342 58.0391 17.7748 58.0147C17.7155 57.9903 17.6618 57.9541 17.6169 57.9083L15.9625 56.2539C15.9172 56.2086 15.8812 56.1548 15.8567 56.0956C15.8322 56.0364 15.8196 55.973 15.8196 55.9089C15.8196 55.8448 15.8322 55.7813 15.8567 55.7221C15.8812 55.6629 15.9172 55.6091 15.9625 55.5638C16.0078 55.5185 16.0616 55.4826 16.1208 55.458C16.18 55.4335 16.2435 55.4209 16.3076 55.4209C16.3716 55.4209 16.4351 55.4335 16.4943 55.458C16.5535 55.4826 16.6073 55.5185 16.6526 55.5638L18.307 57.2182C18.3836 57.2829 18.4375 57.3703 18.4612 57.4678C18.4848 57.5652 18.4768 57.6676 18.4384 57.7602C18.4 57.8528 18.3331 57.9308 18.2475 57.9829C18.1618 58.035 18.0619 58.0586 17.962 58.0501Z" fill="#ABF5D1"/>
<path d="M21.0864 56.6557C20.961 56.6557 20.8408 56.6059 20.7522 56.5173C20.6635 56.4286 20.6137 56.3084 20.6137 56.183V53.8196C20.6137 53.6905 20.665 53.5667 20.7563 53.4754C20.8476 53.3841 20.9714 53.3328 21.1006 53.3328C21.2297 53.3328 21.3535 53.3841 21.4448 53.4754C21.5361 53.5667 21.5874 53.6905 21.5874 53.8196V56.183C21.5876 56.2476 21.5745 56.3114 21.5489 56.3707C21.5234 56.43 21.4861 56.4834 21.4391 56.5277C21.3922 56.572 21.3367 56.6062 21.276 56.6282C21.2153 56.6502 21.1508 56.6596 21.0864 56.6557Z" fill="#ABF5D1"/>
<path d="M24.2628 57.9036C24.1629 57.9121 24.0629 57.8886 23.9773 57.8365C23.8916 57.7843 23.8248 57.7063 23.7864 57.6137C23.748 57.5211 23.74 57.4187 23.7636 57.3213C23.7872 57.2239 23.8412 57.1365 23.9178 57.0717L25.5721 55.4173C25.6637 55.3258 25.7878 55.2744 25.9172 55.2744C26.0466 55.2744 26.1708 55.3258 26.2623 55.4173C26.3538 55.5089 26.4052 55.633 26.4052 55.7624C26.4052 55.8918 26.3538 56.0159 26.2623 56.1075L24.6079 57.7618C24.563 57.8077 24.5092 57.8439 24.4499 57.8682C24.3906 57.8926 24.3269 57.9047 24.2628 57.9036Z" fill="#ABF5D1"/>
</g>
<defs>
<linearGradient id="paint0_linear" x1="71.1435" y1="40.2916" x2="71.1435" y2="12.3796" gradientUnits="userSpaceOnUse">
<stop stop-color="#ABF5D1" stop-opacity="0"/>
<stop offset="0.34" stop-color="#96F4CA" stop-opacity="0.25"/>
<stop offset="0.64" stop-color="#86F3C5" stop-opacity="0.44"/>
<stop offset="0.87" stop-color="#7DF2C1" stop-opacity="0.56"/>
<stop offset="1" stop-color="#79F2C0" stop-opacity="0.6"/>
</linearGradient>
<linearGradient id="paint1_linear" x1="30.9607" y1="66.6247" x2="111.813" y2="66.6247" gradientUnits="userSpaceOnUse">
<stop stop-color="#0065FF"/>
<stop offset="1" stop-color="#4C9AFF"/>
</linearGradient>
<linearGradient id="paint2_linear" x1="2.35396" y1="91.3319" x2="39.5636" y2="54.1128" gradientUnits="userSpaceOnUse">
<stop stop-color="#C1C7D0"/>
<stop offset="1" stop-color="white"/>
</linearGradient>
<linearGradient id="paint3_linear" x1="5.61543" y1="85.8582" x2="36.302" y2="55.1716" gradientUnits="userSpaceOnUse">
<stop stop-color="#0052CC"/>
<stop offset="1" stop-color="#2684FF"/>
</linearGradient>
<linearGradient id="paint4_linear" x1="13.6983" y1="79.9874" x2="27.9733" y2="65.7123" gradientUnits="userSpaceOnUse">
<stop stop-color="#57D9A3"/>
<stop offset="0.84" stop-color="#E3FCEF"/>
</linearGradient>
<linearGradient id="paint5_linear" x1="72.7885" y1="86.9263" x2="72.7885" y2="48.9604" gradientUnits="userSpaceOnUse">
<stop offset="0.39" stop-color="#C1C7D0"/>
<stop offset="0.5" stop-color="#D4D9DF"/>
<stop offset="0.7" stop-color="#F3F4F6"/>
<stop offset="0.81" stop-color="white"/>
</linearGradient>
<linearGradient id="paint6_linear" x1="4468.98" y1="38907.7" x2="6980.49" y2="36395.9" gradientUnits="userSpaceOnUse">
<stop stop-color="#C1C7D0"/>
<stop offset="1" stop-color="white"/>
</linearGradient>
<linearGradient id="paint7_linear" x1="57.015" y1="77.4397" x2="84.2699" y2="50.1801" gradientUnits="userSpaceOnUse">
<stop stop-color="#A5ADBA"/>
<stop offset="1" stop-color="#C1C7D0"/>
</linearGradient>
<clipPath id="clip0">
<rect width="120" height="100.611" fill="white"/>
</clipPath>
</defs>
</svg>
