<svg width="17" height="18" viewBox="0 0 17 18" fill="none" xmlns="http://www.w3.org/2000/svg">
<path fill-rule="evenodd" clip-rule="evenodd" d="M1.80001 7.38016C1.80001 4.28926 4.27675 1.80001 7.31246 1.80001C10.3482 1.80001 12.8253 4.28933 12.8253 7.38016C12.8253 10.471 10.3482 12.9603 7.31246 12.9603C4.27675 12.9603 1.80001 10.4711 1.80001 7.38016ZM7.31246 0C3.26486 0 0 3.31302 0 7.38016C0 11.4473 3.26486 14.7603 7.31246 14.7603C8.7034 14.7603 10.002 14.3691 11.1074 13.6904L14.9025 17.7172C15.2434 18.0789 15.813 18.0958 16.1747 17.7549C16.5364 17.414 16.5533 16.8444 16.2124 16.4827L12.5184 12.5632C13.822 11.2292 14.6253 9.39745 14.6253 7.38016C14.6253 3.31294 11.36 0 7.31246 0Z" fill="black" fill-opacity="0.87"/>
</svg>
