<svg width="20" height="20" viewBox="0 0 20 20" fill="none" xmlns="http://www.w3.org/2000/svg">
<g style="mix-blend-mode:luminosity">
<path d="M10 0C15.5228 0 20 4.47715 20 10C20 15.5228 15.5228 20 10 20C4.47715 20 0 15.5228 0 10C0 4.47715 4.47715 0 10 0Z" fill="#7F4DA0"/>
</g>
<g style="mix-blend-mode:luminosity">
<path fill-rule="evenodd" clip-rule="evenodd" d="M12.6641 8.7327C12.6155 8.33757 12.494 8.02732 12.2784 7.7525C11.9983 7.39864 11.6404 7.18674 11.1105 7.06104C10.7652 6.97726 10.6257 6.98687 10.5008 7.10095C10.3845 7.20784 10.3618 7.4221 10.4507 7.56086C10.5132 7.66156 10.5853 7.69764 10.7859 7.73702C11.053 7.78617 11.2377 7.84995 11.4056 7.94597C11.762 8.15178 11.928 8.47383 11.9458 8.99523C11.9541 9.24004 11.9752 9.3153 12.0607 9.40213C12.2192 9.56085 12.5013 9.52998 12.6209 9.34004C12.6648 9.26846 12.6715 9.2373 12.6761 9.07106C12.6792 8.96815 12.6748 8.81496 12.6641 8.7327Z" fill="white"/>
</g>
<g style="mix-blend-mode:luminosity">
<path fill-rule="evenodd" clip-rule="evenodd" d="M14.0602 9.17817C13.9898 7.9676 13.5163 6.99364 12.6689 6.30838C12.1915 5.92334 11.6143 5.65857 10.9817 5.52981C10.75 5.48375 10.3233 5.44643 10.2501 5.46778C10.1811 5.48755 10.0834 5.56234 10.0398 5.62997C9.99379 5.70331 9.98341 5.86706 10.0227 5.96178C10.0861 6.12013 10.204 6.17607 10.5343 6.20497C11.0436 6.24952 11.5688 6.42842 11.9656 6.69327C12.4187 6.99483 12.7788 7.40728 13.0118 7.89196C13.2131 8.30839 13.3369 8.90852 13.3335 9.44593C13.3323 9.6403 13.3623 9.75006 13.4405 9.83031C13.5585 9.95371 13.7305 9.98069 13.8823 9.89873C14.0505 9.81027 14.0898 9.65498 14.0602 9.17817Z" fill="white"/>
</g>
<g style="mix-blend-mode:luminosity">
<path fill-rule="evenodd" clip-rule="evenodd" d="M15.6052 13.8401C15.5815 13.7709 15.5263 13.6642 15.4868 13.6029C15.2381 13.2274 13.902 12.1817 13.2349 11.8398C12.854 11.6441 12.5718 11.5789 12.3626 11.6401C12.1376 11.7034 12.0191 11.8081 11.6422 12.2766C11.4902 12.4644 11.3343 12.6403 11.2929 12.668C11.1902 12.7391 10.9889 12.7965 10.8468 12.7965C10.5172 12.7945 9.91922 12.581 9.45936 12.3003C9.10214 12.0829 8.64429 11.6935 8.29296 11.3081C7.87848 10.8554 7.59629 10.4562 7.37325 10.0055C7.08511 9.42636 7.01209 9.07253 7.13246 8.81358C7.16207 8.74836 7.20155 8.6792 7.21929 8.65743C7.23707 8.63769 7.4226 8.48547 7.62783 8.31943C8.03047 7.99924 8.09559 7.92611 8.17059 7.7067C8.26532 7.42798 8.23968 7.14335 8.09363 6.85676C7.98112 6.63932 7.68705 6.16494 7.47391 5.85857C7.19168 5.45536 6.48907 4.59356 6.34892 4.4769C6.0963 4.27136 5.77266 4.23576 5.4154 4.37415C5.03847 4.52042 4.3319 5.08968 4.02993 5.48698C3.75756 5.84671 3.653 6.10169 3.63719 6.43771C3.62339 6.71443 3.64706 6.82907 3.79311 7.1829C4.93584 9.95805 6.64102 12.1738 8.98373 13.933C10.2074 14.8521 11.4764 15.5519 12.7928 16.0302C13.5605 16.3089 13.8941 16.3227 14.2868 16.0935C14.4526 15.9946 14.8631 15.5736 15.0921 15.2672C15.471 14.7573 15.6111 14.522 15.6506 14.3343C15.6782 14.2058 15.6565 13.9824 15.6052 13.8401Z" fill="white"/>
</g>
<g style="mix-blend-mode:luminosity">
<path fill-rule="evenodd" clip-rule="evenodd" d="M15.4814 9.45625C15.4561 8.77148 15.3408 8.20981 15.1004 7.58359C14.863 6.96759 14.6228 6.56562 14.1692 6.02195C13.7403 5.51219 13.4071 5.22113 12.8788 4.89713C12.1417 4.44572 11.2446 4.14699 10.2392 4.02136C9.8964 3.97745 9.81884 3.98059 9.71365 4.05077C9.50982 4.18372 9.51255 4.51534 9.71702 4.6463C9.7847 4.68795 9.84476 4.70313 10.119 4.73903C10.54 4.79571 10.8107 4.84912 11.1319 4.93676C12.3915 5.28109 13.3601 5.9849 14.0077 7.02967C14.5496 7.9005 14.7746 8.7714 14.7426 9.88367C14.7315 10.2597 14.7396 10.3259 14.7971 10.4162C14.9072 10.5846 15.1975 10.6179 15.3464 10.4782C15.439 10.393 15.4565 10.3291 15.4748 10.0073C15.4835 9.83937 15.4854 9.59153 15.4814 9.45625Z" fill="white"/>
</g>
</svg>
